<?xml version="1.0" standalone="no"?>
<svg xmlns:xlink="http://www.w3.org/1999/xlink" id="wave" style="transform:rotate(180deg); transition: 0.3s" viewBox="0 0 1440 210" version="1.1" xmlns="http://www.w3.org/2000/svg"><defs><linearGradient id="sw-gradient-0" x1="0" x2="0" y1="1" y2="0"><stop stop-color="rgba(32, 27, 44, 1)" offset="0%"/><stop stop-color="rgba(32, 27, 44, 1)" offset="100%"/></linearGradient></defs><path style="transform:translate(0, 0px); opacity:1" fill="url(#sw-gradient-0)" d="M0,105L120,94.5C240,84,480,63,720,49C960,35,1200,28,1440,28C1680,28,1920,35,2160,63C2400,91,2640,140,2880,154C3120,168,3360,147,3600,140C3840,133,4080,140,4320,122.5C4560,105,4800,63,5040,52.5C5280,42,5520,63,5760,84C6000,105,6240,126,6480,115.5C6720,105,6960,63,7200,56C7440,49,7680,77,7920,98C8160,119,8400,133,8640,126C8880,119,9120,91,9360,70C9600,49,9840,35,10080,31.5C10320,28,10560,35,10800,52.5C11040,70,11280,98,11520,98C11760,98,12000,70,12240,63C12480,56,12720,70,12960,94.5C13200,119,13440,154,13680,168C13920,182,14160,175,14400,143.5C14640,112,14880,56,15120,52.5C15360,49,15600,98,15840,98C16080,98,16320,49,16560,52.5C16800,56,17040,112,17160,140L17280,168L17280,210L17160,210C17040,210,16800,210,16560,210C16320,210,16080,210,15840,210C15600,210,15360,210,15120,210C14880,210,14640,210,14400,210C14160,210,13920,210,13680,210C13440,210,13200,210,12960,210C12720,210,12480,210,12240,210C12000,210,11760,210,11520,210C11280,210,11040,210,10800,210C10560,210,10320,210,10080,210C9840,210,9600,210,9360,210C9120,210,8880,210,8640,210C8400,210,8160,210,7920,210C7680,210,7440,210,7200,210C6960,210,6720,210,6480,210C6240,210,6000,210,5760,210C5520,210,5280,210,5040,210C4800,210,4560,210,4320,210C4080,210,3840,210,3600,210C3360,210,3120,210,2880,210C2640,210,2400,210,2160,210C1920,210,1680,210,1440,210C1200,210,960,210,720,210C480,210,240,210,120,210L0,210Z"/></svg>